<svg xmlns="http://www.w3.org/2000/svg" version="1.1" xmlns:xlink="http://www.w3.org/1999/xlink" xmlns:svgjs="http://svgjs.dev/svgjs" viewBox="0 0 800 800"><defs><linearGradient x1="50%" y1="0%" x2="50%" y2="100%" id="ccchaos-grad"><stop stop-color="hsl(206, 75%, 49%)" stop-opacity="1" offset="0%"></stop><stop stop-color="hsl(331, 90%, 56%)" stop-opacity="1" offset="100%"></stop></linearGradient></defs><g stroke-width="2" stroke="url(#ccchaos-grad)" fill="none" stroke-linecap="round"><path d="M422.48 104.09C432.88 101.3 443.14 100.36 453.19 101.35 463.2 103.78 472.92 107.92 482.24 113.45 491.38 119.63 499.95 126.42 507.79 133.4 515.26 139.86 521.82 145.85 527.33 151.17 538.5 160.38 547.92 167.63 551.98 170.59 556.64 173.17 562.96 176.75 571.31 181.37 581.97 186.72 594.72 193.14 609.27 200.54 624.98 208.63 641.06 217.54 656.43 227.09 670.02 237.1 680.72 247.54 687.49 258.26 690.2 269.18 688.35 280.23 682.32 291.29 673.81 302.39 663.61 313.43 653.5 324.36 646.01 335.28 642.08 346.07 642.93 356.74 649.32 367.38 660.38 377.91 674.8 388.32 690.79 398.73 705.69 409.03 716.98 419.18 723.1 429.34 722.55 439.1 715.58 448.42 703.72 457.71 688.44 466.5 672.05 474.74 656.93 482.88 644.77 490.39 636.77 497.22 633.81 503.88 635.3 509.81 640.29 514.99 648.09 520.04 656.52 524.39 664.01 528.13 671.26 533.69 662.72 544.58 647.3 551.24 633.85 556.98 618.96 563.69 603.55 571.57 588.24 580.91 573.71 591.53 560.41 603.35 548.5 616.22 538.13 629.74 529.18 643.42 521.66 656.8 515.16 669.2 509.35 679.92 501.96 691.61 487.32 696.03 478.96 688.79 473.15 681.61 466.62 673.23 459.34 664.63 451.98 657.48 443.9 652.12 435.13 649.37 426.32 650.19 416.87 654.22 406.84 661.2 396.8 670.85 386.46 681.48 375.88 691.88 365.33 701.5 354.56 708.68 343.65 712.66 332.81 713.52 321.87 710.57 310.91 704.11 300.12 694.94 289.43 683.39 278.97 670.37 268.84 656.87 259.11 643.51 249.95 631.03 241.31 620.11 233.41 610.93 226.35 603.63 217.1 596.77 203.37 592.28 198.22 592.32 192.98 592.65 180.5 588.63 172.33 583.29 165.78 578.56 158.81 572.61 151.64 565.58 144.27 557.9 137.33 549.34 131.19 540.1 125.82 530.46 121.78 520.37 119.21 510 117.67 499.44 117.41 488.76 118.19 478.08 119.14 467.34 120.33 456.69 121.39 446.2 121.5 435.71 120.98 425.39 119.83 415.29 117.7 405.19 115.5 395.53 113.62 386.29 111.99 377.01 111.51 368.11 112.42 359.54 114.42 350.88 117.92 342.46 122.72 334.25 128.18 325.84 134.32 317.52 140.74 309.22 146.74 300.6 152.38 291.88 157.49 282.99 161.58 273.71 165.09 264.2 168.17 254.43 170.57 244.31 173.01 233.99 175.77 223.55 178.65 213.01 182.34 202.59 186.98 192.47 192.33 182.69 198.78 173.58 206.26 165.36 214.51 157.97 223.62 151.77 233.39 146.91 243.63 143.06 254.26 140.53 265.1 139.27 276.06 138.6 287.03 138.75 297.94 139.44 308.76 139.8 319.45 140.03 330 139.82 340.41 138.43 350.73 136.19 360.99 133.06 371.16 128.68 381.34 123.69 391.57 118.43 401.77 112.89 412.07 107.95 422.47 104.09" stroke-dasharray="7 4" transform="rotate(0, 400, 400)" opacity="0.97"></path><path d="M419.78 114.8C429.73 112.02 439.32 110.99 448.52 111.8 457.66 113.99 466.33 117.85 474.42 123.08 482.36 129.01 489.6 135.64 496.05 142.57 502.24 149.12 507.55 155.34 511.94 161.01 517.78 167.57 526.17 175.78 530 178.23 533.47 179.34 537.67 180.7 543.03 182.51 550.11 184.51 558.87 187.3 569.46 190.97 581.83 195.22 595.71 200.45 610.61 206.63 625.8 213.44 640.53 221.1 653.8 229.49 664.79 238.37 672.6 247.79 676.53 257.61 676.79 267.72 673.13 278.07 666.11 288.54 657.49 299.14 648 309.76 639.25 320.33 633.4 330.94 631.12 341.45 633.32 351.83 640.49 362.22 651.71 372.47 665.7 382.53 680.89 392.61 694.89 402.5 705.5 412.16 711.4 421.83 711.21 431.02 705.12 439.7 694.42 448.36 680.3 456.47 664.76 463.99 649.93 471.45 637.32 478.28 628.19 484.47 623.48 490.59 622.93 496.06 625.9 500.94 631.99 505.82 639.37 510.22 646.65 514.24 655.4 520.61 654.4 534.59 643.52 543.36 632.8 550.53 620.09 558.67 606.18 567.89 591.64 578.3 577.14 589.73 563.21 602 550.08 614.88 538.08 627.98 527.29 640.82 517.7 652.98 509.19 663.86 501.55 672.86 494.82 679.8 488.57 684.09 482.53 685.46 476.94 684.4 471.21 680.65 465.18 674.62 459.28 667.55 452.88 659.62 445.91 651.74 438.94 645.39 431.35 640.79 423.14 638.63 414.9 639.76 406.06 643.8 396.65 650.49 387.23 659.62 377.5 669.66 367.53 679.55 357.61 688.85 347.5 696.03 337.29 700.37 327.19 701.97 317.08 700.08 307.05 694.89 297.25 687.08 287.66 676.83 278.43 664.9 269.56 652.18 261.2 639.2 253.47 626.65 246.23 615.19 239.71 605.09 234 596.56 226.44 587.41 214.76 578.53 209.83 577.07 204.22 576.72 190.07 573.71 181 569.85 174.01 566.44 166.75 561.94 159.48 556.41 152.22 550.33 145.56 543.35 139.85 535.61 135 527.46 131.51 518.74 129.47 509.58 128.41 500.21 128.53 490.57 129.57 480.76 130.68 470.88 131.95 460.93 133.02 451 133.1 441.05 132.53 431.16 131.31 421.36 129.12 411.57 126.8 402.09 124.77 392.91 122.93 383.7 122.18 374.75 122.75 366.03 124.39 357.21 127.52 348.53 132 339.96 137.24 331.2 143.27 322.43 149.73 313.62 155.94 304.54 161.93 295.32 167.48 285.92 172.08 276.24 176.08 266.36 179.55 256.31 182.22 246.07 184.71 235.76 187.27 225.5 189.7 215.32 192.69 205.43 196.4 196.01 200.61 187.09 205.81 178.95 211.97 171.79 218.85 165.49 226.66 160.37 235.24 156.53 244.39 153.58 254.11 151.8 264.22 151.1 274.62 150.8 285.2 151.12 295.85 151.78 306.57 151.99 317.24 151.94 327.82 151.38 338.37 149.65 348.81 147.1 359.13 143.73 369.41 139.2 379.6 134.16 389.71 128.92 399.8 123.46 409.83 118.6 419.77 114.81" stroke-dasharray="2 2" transform="rotate(4.04, 400, 400)" opacity="0.78"></path><path d="M413 125.52C422.4 122.74 431.31 121.64 439.71 122.27 448.05 124.22 455.8 127.78 462.92 132.7 469.91 138.36 476.2 144.77 481.76 151.59 487.17 158.17 491.87 164.56 495.88 170.51 501.7 177.74 512.37 187.48 518.61 190.5 524 191.83 530.38 193.22 538.04 194.86 547.24 196.49 557.92 198.71 570.04 201.63 583.32 204.95 597.43 209.13 611.81 214.17 625.74 219.76 638.53 226.18 649.31 233.35 657.57 241 662.59 249.26 663.96 258.01 662.2 267.1 657.21 276.53 649.68 286.18 641.34 296.03 632.83 305.98 625.55 315.95 621.33 326.01 620.6 336.03 623.99 345.94 631.79 355.89 643.05 365.7 656.57 375.31 670.94 384.94 684.06 394.37 694.02 403.53 699.7 412.69 699.83 421.35 694.55 429.49 684.97 437.61 672.02 445.19 657.41 452.2 643.01 459.19 630.2 465.61 620.2 471.49 612.76 480.05 619.72 495.15 629.29 502.19 636 507.21 641.19 512.33 644.09 517.73 644.75 523.86 642.34 530.56 636.99 537.99 629.21 546.4 619.11 555.7 607.33 565.9 594.39 576.99 580.84 588.78 567.23 601.06 553.81 613.54 541.01 625.86 529.05 637.55 517.94 648.29 507.78 657.54 498.49 664.8 490.04 670.05 482.23 672.79 474.87 672.86 468.04 670.85 461.36 666.56 454.66 660.39 448.19 653.54 441.49 646.15 434.47 639.01 427.49 633.43 420.09 629.55 412.22 627.94 404.34 629.35 395.98 633.37 387.15 639.78 378.32 648.4 369.25 657.87 360.02 667.25 350.84 676.2 341.56 683.32 332.28 687.95 323.12 690.18 314.05 689.25 305.18 685.25 296.54 678.76 288.22 669.84 280.34 659.1 272.8 647.32 265.8 634.95 259.45 622.62 253.47 610.94 248.15 600.23 243.51 590.75 239.1 582.86 235.21 576.41 231.77 571.3 226.45 566.39 214.91 561.53 207.77 559.89 202 558.91 195.71 557.35 188.97 555.06 181.66 552.51 174.26 549.05 167.04 544.7 160.04 539.94 153.79 534.31 148.6 527.9 144.34 521.15 141.43 513.74 139.94 505.79 139.33 497.63 139.8 489.06 141.07 480.19 142.31 471.23 143.62 462.07 144.66 452.77 144.71 443.45 144.08 434.04 142.8 424.6 140.54 415.15 138.14 405.87 135.97 396.78 133.95 387.65 132.94 378.67 133.17 369.79 134.43 360.84 137.17 351.93 141.26 343.03 146.2 333.98 152.04 324.87 158.44 315.66 164.77 306.26 171.03 296.72 176.97 287.03 182.09 277.17 186.63 267.19 190.6 257.15 193.69 247.07 196.45 237.07 199.07 227.27 201.33 217.7 203.89 208.58 206.94 200.07 210.24 192.14 214.34 185.08 219.29 179.04 224.82 173.82 231.26 169.74 238.51 166.84 246.34 164.68 254.85 163.53 263.88 163.25 273.31 163.2 283.08 163.57 293.06 164.11 303.23 164.09 313.48 163.73 323.71 162.81 334 160.74 344.22 157.9 354.3 154.29 364.41 149.65 374.38 144.57 384.17 139.37 393.97 134.01 403.6 129.25 412.99 125.52" stroke-dasharray="6 8" transform="rotate(8.08, 400, 400)" opacity="0.58"></path><path d="M403.54 136.23C412.35 133.48 420.62 132.3 428.34 132.76 436.02 134.47 443.1 137.73 449.57 142.32 455.99 147.67 461.79 153.83 466.99 160.48 472.19 167.03 476.9 173.51 481.21 179.69 485.74 185.09 490.13 189.92 494.58 194.14 499.65 197.41 505.18 200.15 511.42 202.5 518.74 204.18 527.11 205.77 536.66 207.44 547.42 208.91 559.31 210.79 572.12 213.19 585.46 215.8 598.97 219.12 612.07 223.19 624.16 227.68 634.61 232.95 642.72 238.93 648.3 245.35 650.77 252.41 649.97 260.01 646.66 267.96 640.83 276.32 633.23 284.99 625.51 293.88 618.18 302.97 612.44 312.16 609.81 321.48 610.51 330.82 614.93 340.1 623.21 349.44 634.41 358.68 647.39 367.75 660.95 376.85 673.21 385.76 682.53 394.42 687.98 403.08 688.41 411.27 683.89 418.98 675.38 426.67 663.59 433.88 649.96 440.6 636.14 447.32 623.35 453.59 612.72 459.43 603.2 468.12 604.64 484.46 612.28 492.64 618.52 498.55 624.02 504.71 627.99 511.27 630.42 518.53 630.33 526.4 627.62 534.95 622.7 544.32 615.39 554.42 606.12 565.18 595.39 576.52 583.54 588.25 571.07 600.11 558.27 611.84 545.57 623.07 533.27 633.39 521.39 642.58 510.2 650.14 499.73 655.71 489.9 659.39 480.73 660.74 472.12 659.71 464.01 656.96 456.25 652.29 448.7 646.14 441.42 639.62 434.15 632.82 426.8 626.42 419.55 621.6 412.08 618.41 404.35 617.31 396.64 618.95 388.62 622.94 380.3 629.06 371.98 637.2 363.57 646.1 355.12 654.97 346.72 663.55 338.34 670.56 330.08 675.4 321.92 678.16 313.97 678.09 306.31 675.19 298.85 669.97 291.79 662.37 285.2 652.88 278.87 642.18 273.08 630.62 267.87 618.75 262.88 607.17 258.43 596.16 254.49 586.06 250.57 577.19 246.96 569.54 243.57 563.11 237.94 556.06 224.74 547.63 216.56 544.9 210.17 543.52 203.36 541.85 196.25 539.72 188.78 537.55 181.41 534.71 174.42 531.13 167.81 527.32 162.09 522.73 157.51 517.4 153.88 511.81 151.59 505.55 150.62 498.7 150.44 491.66 151.22 484.12 152.67 476.18 154 468.14 155.32 459.77 156.32 451.14 156.31 442.48 155.62 433.61 154.28 424.56 151.98 415.5 149.52 406.48 147.23 397.52 145.05 388.54 143.79 379.57 143.7 370.62 144.57 361.62 146.87 352.57 150.54 343.47 155.1 334.27 160.66 324.98 166.9 315.57 173.25 306.06 179.68 296.43 185.94 286.72 191.53 276.95 196.61 267.15 201.14 257.42 204.79 247.79 207.99 238.36 210.9 229.27 213.27 220.55 215.7 212.37 218.38 204.91 221.07 198.07 224.34 192.13 228.27 187.2 232.62 183.03 237.76 179.91 243.68 177.83 250.11 176.33 257.26 175.66 265.02 175.68 273.2 175.74 281.85 176.05 290.82 176.4 300.07 176.09 309.51 175.38 319.02 174.08 328.68 171.68 338.33 168.56 347.89 164.75 357.52 160.02 367.01 154.94 376.3 149.79 385.63 144.54 394.72 139.89 403.53 136.23" stroke-dasharray="11 6" transform="rotate(12.12, 400, 400)" opacity="0.61"></path><path d="M393.34 146.94C401.56 144.22 409.29 142.97 416.52 143.27 423.72 144.74 430.42 147.69 436.61 151.94 442.81 156.96 448.56 162.83 453.92 169.26 459.39 175.71 464.62 182.21 469.72 188.53 475.18 194.22 480.77 199.45 486.69 204.13 493.28 207.94 500.5 211.23 508.5 214.08 517.44 216.21 527.31 218.14 538.13 220.01 549.72 221.54 561.99 223.3 574.64 225.4 587.25 227.54 599.45 230.24 610.69 233.54 620.54 237.13 628.46 241.39 633.93 246.31 637.02 251.59 637.31 257.5 634.81 263.96 630.45 270.74 624.25 277.98 616.97 285.59 610.14 293.43 604.15 301.54 599.97 309.83 598.84 318.26 600.81 326.79 606.1 335.34 614.72 343.95 625.76 352.53 638.17 361.01 650.91 369.51 662.34 377.87 671.05 386.05 676.27 394.23 676.94 402.02 673.13 409.4 665.64 416.77 654.98 423.76 642.38 430.37 629.27 437.01 616.68 443.33 605.69 449.36 597.27 455.51 591.68 461.47 588.99 467.34 589.36 473.47 591.93 479.66 595.97 486.02 601.28 492.82 606.52 499.98 610.92 507.57 614.46 515.78 616.1 524.55 615.57 533.91 613.21 543.86 608.58 554.35 601.94 565.25 593.74 576.42 584.08 587.68 573.41 598.75 562.01 609.42 550.23 619.34 538.41 628.14 526.62 635.72 515.15 641.63 504.16 645.6 493.55 647.85 483.48 648.01 473.95 646.09 464.81 642.79 456.1 637.93 447.74 631.93 439.65 625.83 431.74 619.65 423.96 614 416.29 609.91 408.63 607.36 400.91 606.72 393.22 608.57 385.42 612.52 377.52 618.35 369.61 626 361.79 634.36 354.08 642.71 346.4 650.9 338.88 657.76 331.59 662.74 324.38 665.94 317.47 666.61 310.92 664.72 304.5 660.7 298.51 654.38 292.99 646.17 287.61 636.64 282.71 626.05 278.29 614.88 273.92 603.66 269.94 592.67 266.28 582.25 262.45 572.74 258.75 564.18 255.06 556.65 250.89 550.34 246.51 544.99 241.81 540.49 236.41 536.98 230.57 533.99 224.3 531.32 217.41 529.2 210.23 527.04 202.93 524.67 195.49 522.46 188.33 519.8 181.72 516.6 173.11 511.36 162.84 497.44 161.54 488.81 161.75 482.71 162.79 476.08 164.38 468.97 165.76 461.78 167.05 454.17 167.98 446.2 167.9 438.2 167.16 429.87 165.76 421.25 163.44 412.63 160.92 403.93 158.55 395.17 156.23 386.41 154.74 377.57 154.33 368.67 154.82 359.74 156.68 350.71 159.88 341.6 164.01 332.43 169.2 323.16 175.17 313.81 181.41 304.43 187.9 294.98 194.38 285.53 200.35 276.13 205.93 266.8 211.03 257.65 215.29 248.71 219.06 240.09 222.43 231.93 225.14 224.2 227.73 217.1 230.35 210.76 234.14 202.62 244.21 191.96 250.98 189.43 256.11 188.44 261.93 188.1 268.36 188.28 275.19 188.33 282.54 188.5 290.31 188.57 298.37 187.94 306.73 186.85 315.28 185.18 324 182.47 332.8 179.09 341.6 175.11 350.48 170.32 359.29 165.25 367.94 160.17 376.63 155.05 385.11 150.53 393.33 146.95" stroke-dasharray="7 8" transform="rotate(16.16, 400, 400)" opacity="0.17"></path><path d="M384.52 157.66C392.2 154.97 399.5 153.66 406.43 153.81 413.35 155.04 419.92 157.68 426.15 161.58 432.44 166.25 438.49 171.8 444.36 177.96 450.42 184.24 456.46 190.68 462.62 197.07 469.17 202.96 476.05 208.51 483.4 213.6 491.36 217.91 499.97 221.74 509.3 225.12 519.31 227.78 530.02 230.15 541.32 232.36 552.96 234.13 564.81 235.97 576.54 238 587.75 239.92 598.1 242.23 607.11 245.01 617.25 249.66 623.19 262.19 618.78 270.05 613.84 275.72 607.7 281.88 601.09 288.45 595.36 295.22 590.78 302.32 588.14 309.67 588.4 317.15 591.49 324.8 597.49 332.56 606.31 340.39 617.1 348.26 628.9 356.11 640.83 363.98 651.45 371.81 659.56 379.54 664.55 387.27 665.45 394.71 662.28 401.86 655.75 409.01 646.2 415.9 634.66 422.53 622.35 429.22 610.15 435.72 599.03 442.08 589.92 448.58 583.14 455.04 578.9 461.53 577.45 468.3 578.21 475.23 580.66 482.41 584.68 490 589.15 497.97 593.4 506.36 597.41 515.23 600.13 524.56 601.21 534.34 600.91 544.48 598.64 554.94 594.49 565.56 588.85 576.18 581.63 586.62 573.13 596.61 563.69 606 553.5 614.45 542.87 621.67 531.94 627.64 520.97 631.99 510.18 634.5 499.49 635.51 489.14 634.67 479.2 632.07 469.5 628.41 460.21 623.52 451.29 617.78 442.59 612.17 434.18 606.66 426.02 601.75 417.97 598.36 410.09 596.41 402.33 596.19 394.61 598.21 386.96 602.09 379.38 607.63 371.8 614.82 364.45 622.64 357.37 630.49 350.29 638.27 343.49 644.92 337.02 649.97 330.58 653.52 324.5 654.83 318.81 653.84 313.18 650.93 307.96 645.85 303.16 638.91 298.38 630.61 293.98 621.1 289.93 610.81 285.78 600.21 281.86 589.53 278.09 579.11 274.01 569.27 269.89 560.11 265.64 551.77 260.85 544.41 255.76 537.92 250.32 532.23 244.24 527.48 237.78 523.33 230.99 519.62 223.76 516.55 216.42 513.64 209.14 510.73 201.92 508.11 195.16 505.26 189.09 502.06 181.48 497.12 173.24 484.61 172.7 476.93 173.25 471.55 174.5 465.63 176.18 459.22 177.57 452.74 178.8 445.81 179.64 438.44 179.49 431.06 178.69 423.28 177.25 415.12 174.91 406.97 172.37 398.65 169.93 390.19 167.49 381.74 165.8 373.16 165.09 364.46 165.2 355.75 166.61 346.93 169.32 338.01 172.96 329.09 177.7 320.09 183.31 311.05 189.33 302.05 195.74 293.05 202.3 284.13 208.54 275.35 214.53 266.74 220.14 258.4 225.01 250.35 229.41 242.72 233.36 235.61 238.1 225.98 246.2 211.25 250.36 206.44 254.86 203.23 266.74 200.85 274.3 200.97 279.83 200.92 285.91 200.85 292.43 200.6 299.23 199.6 306.39 198.13 313.83 196.09 321.44 193.08 329.24 189.48 337.12 185.36 345.1 180.53 353.09 175.5 361.02 170.53 368.98 165.54 376.83 161.15 384.51 157.66" stroke-dasharray="9 1" transform="rotate(20.200000000000003, 400, 400)" opacity="0.83"></path><path d="M378.89 168.37C386.1 165.72 393.1 164.37 399.89 164.36 406.69 165.37 413.31 167.71 419.8 171.24 426.37 175.55 432.89 180.74 439.44 186.58 446.2 192.64 453.13 198.95 460.32 205.31 467.88 211.32 475.85 217.1 484.31 222.52 493.24 227.28 502.73 231.6 512.76 235.5 523.15 238.71 533.95 241.6 544.96 244.24 555.9 246.39 566.63 248.49 576.81 250.65 586.16 252.58 594.34 254.75 600.98 257.24 607.57 261.2 607.92 271.64 602.2 278.21 597.15 282.93 591.45 288.13 585.77 293.74 581.28 299.51 578.15 305.65 576.96 312.1 578.48 318.65 582.52 325.45 589.06 332.42 597.96 339.45 608.42 346.62 619.58 353.86 630.7 361.12 640.55 368.42 648.08 375.74 652.83 383.06 653.91 390.21 651.33 397.2 645.7 404.19 637.23 411.05 626.76 417.79 615.33 424.59 603.67 431.33 592.65 438.05 583.11 444.92 575.43 451.86 569.89 458.93 566.81 466.25 565.82 473.8 566.58 481.63 569.09 489.78 572.43 498.29 576.02 507.15 579.89 516.33 583.04 525.85 585.09 535.64 586.26 545.58 585.85 555.61 583.82 565.57 580.53 575.31 575.68 584.66 569.48 593.35 562.27 601.32 554.07 608.24 545.15 613.88 535.7 618.34 525.9 621.24 515.97 622.49 505.9 622.45 495.92 620.84 486.16 617.75 476.48 613.91 467.08 609.13 458.01 603.77 449.07 598.7 440.43 593.86 432.09 589.68 423.84 586.94 415.84 585.54 408.08 585.7 400.35 587.86 392.82 591.66 385.49 596.92 378.16 603.65 371.18 610.95 364.56 618.29 357.93 625.65 351.66 632.07 345.76 637.12 337.09 641.85 321.59 638.72 314.71 631.05 310.15 624.01 305.86 615.66 301.78 606.39 297.49 596.6 293.28 586.48 289.08 576.36 284.48 566.51 279.75 557.09 274.79 548.23 269.3 540.13 263.51 532.73 257.38 526.05 250.73 520.18 243.82 514.93 236.72 510.17 229.38 506.07 222.09 502.25 215.05 498.58 208.26 495.31 202.06 491.98 196.67 488.48 190.17 483.32 183.95 471.26 184.1 464.14 184.93 459.2 186.34 453.79 188.06 447.9 189.42 441.98 190.57 435.59 191.3 428.76 191.07 421.92 190.21 414.65 188.73 406.98 186.39 399.31 183.84 391.42 181.36 383.37 178.83 375.32 176.96 367.12 175.99 358.78 175.73 350.46 176.69 342.03 178.89 333.53 182 325.06 186.23 316.56 191.39 308.07 197.06 299.67 203.27 291.36 209.76 283.2 216.13 275.24 222.4 267.53 228.41 260.18 233.84 253.15 238.85 246.6 243.43 240.62 249.09 232.64 258.34 221 262.56 217.44 266.66 215.16 276.63 213.62 282.81 213.66 289.75 213.22 306.26 210.11 315.61 206.8 322.11 203.53 328.87 199.73 335.81 195.51 342.84 190.67 349.99 185.71 357.19 180.85 364.43 176.02 371.67 171.77 378.88 168.38" stroke-dasharray="6 6" transform="rotate(24.24, 400, 400)" opacity="0.44"></path><path d="M377.62 179.09C384.45 176.48 391.23 175.09 397.98 174.94 404.75 175.73 411.52 177.77 418.32 180.94 425.22 184.86 432.23 189.67 439.41 195.16 446.79 200.93 454.43 207.04 462.4 213.29 470.65 219.33 479.31 225.24 488.37 230.9 497.71 236.02 507.43 240.78 517.44 245.16 527.53 248.91 537.69 252.33 547.71 255.47 557.36 258.1 566.45 260.59 574.68 263.03 590.24 269.89 591.72 282.59 585.41 288.19 578.18 294.38 567.12 308.98 566.43 317.27 569.04 322.98 573.87 328.99 580.79 335.24 589.65 341.54 599.71 348.04 610.2 354.71 620.53 361.4 629.62 368.22 636.6 375.17 641.1 382.11 642.34 389.01 640.3 395.87 635.51 402.74 628.07 409.59 618.66 416.43 608.18 423.34 597.19 430.3 586.46 437.34 576.76 444.5 568.45 451.82 561.87 459.32 557.39 467.01 554.8 474.95 553.91 483.16 554.79 491.59 556.74 500.31 559.29 509.27 562.52 518.41 565.51 527.73 567.91 537.13 569.9 546.51 570.74 555.78 570.31 564.77 568.93 573.39 566.17 581.45 562.12 588.72 557.14 595.21 551.07 600.62 544.11 604.76 536.52 607.82 528.34 609.46 519.77 609.63 510.89 608.77 501.87 606.59 492.84 603.22 483.74 599.36 474.76 594.81 465.99 589.9 457.24 585.42 448.73 581.26 440.5 577.78 432.31 575.67 424.38 574.76 416.73 575.26 409.1 577.53 401.72 581.23 394.6 586.21 387.48 592.49 380.76 599.28 374.44 606.12 368.1 613.05 362.14 619.2 356.55 624.19 348.29 629.31 333.29 628.51 326.4 622.56 321.72 616.75 317.2 609.62 312.78 601.45 308.07 592.64 303.33 583.3 298.51 573.72 293.27 564.18 287.84 554.8 282.17 545.76 276.04 537.23 269.63 529.22 262.98 521.79 255.98 515.03 248.84 508.82 241.67 503.11 234.46 498 227.47 493.25 220.89 488.75 211.95 482.68 199.27 470.93 196.07 464.8 195 458.53 197.55 444.29 200.01 436.18 201.3 430.63 202.35 424.67 202.96 418.29 202.65 411.9 201.72 405.1 200.22 397.91 197.89 390.72 195.35 383.32 192.85 375.74 190.26 368.18 188.25 360.47 187.02 352.65 186.43 344.86 186.96 336.99 188.64 329.09 191.2 321.25 194.86 313.43 199.49 305.69 204.72 298.09 210.58 290.63 216.86 283.4 223.19 276.39 229.57 269.71 235.85 263.43 241.71 257.47 247.25 252.02 252.43 247.14 259.09 240.74 270.01 231.8 274.71 229.25 283.53 227.05 299.24 225.35 305.86 223.97 310.51 222.21 315.57 220 320.99 217.29 326.5 213.79 332.33 209.85 338.43 205.55 344.58 200.74 350.95 195.87 357.5 191.14 364.07 186.47 370.78 182.38 377.61 179.09" stroke-dasharray="9 2" transform="rotate(28.28, 400, 400)" opacity="0.46"></path><path d="M380.96 189.8C387.49 187.26 394.11 185.82 400.84 185.55 407.59 186.13 414.49 187.87 421.54 190.69 428.67 194.22 436.01 198.62 443.6 203.72 451.33 209.15 459.35 214.99 467.68 221.06 476.17 227.02 484.97 232.96 494.02 238.76 503.16 244.14 512.46 249.24 521.79 254.04 530.95 258.28 539.9 262.21 548.42 265.86 556.35 269 563.51 271.96 569.63 274.81 579.14 282.3 575 294.52 568.79 299.53 562.65 304.93 555.34 317.67 556.52 324.96 560.07 329.99 565.5 335.33 572.65 340.97 581.36 346.63 590.95 352.55 600.76 358.72 610.31 364.89 618.67 371.28 625.11 377.89 629.37 384.5 630.74 391.17 629.18 397.89 625.17 404.63 618.71 411.44 610.35 418.34 600.85 425.3 590.63 432.38 580.38 439.6 570.75 446.92 562.09 454.42 554.77 462.13 549.16 469.96 545.17 478.02 542.75 486.29 542.01 494.68 542.45 503.25 543.71 511.96 545.9 520.7 548.25 529.46 550.42 538.15 552.61 546.66 554.07 554.9 554.63 562.71 554.61 570.05 553.47 576.72 551.21 582.53 546.15 589.56 530.29 596.46 520.19 596.07 512.88 594.6 505.21 592.05 497.33 588.58 489.28 584.84 481.16 580.64 473.09 576.24 464.97 572.37 456.96 568.88 449.12 566.07 441.3 564.52 433.67 564.07 426.27 564.86 418.89 567.21 411.73 570.8 404.82 575.49 397.91 581.35 391.38 587.64 385.23 593.99 379.05 600.48 373.22 606.33 367.71 611.2 359.5 616.58 344.19 617.79 336.89 613.43 331.87 608.8 326.9 602.88 321.93 595.87 316.67 588.15 311.31 579.75 305.81 570.93 299.96 561.95 293.9 552.91 287.62 544 281.01 535.37 274.22 527.08 267.28 519.2 260.18 511.81 253.08 504.89 246.11 498.41 239.28 492.44 232.81 486.84 226.88 481.55 219.09 474.3 208.84 460.77 206.68 454.08 206.38 447.45 209.59 433.14 212.02 425.28 213.21 419.95 214.13 414.27 214.61 408.25 214.2 402.22 213.22 395.84 211.7 389.12 209.39 382.39 206.88 375.5 204.39 368.46 201.76 361.45 199.63 354.32 198.2 347.13 197.3 339.97 197.41 332.79 198.6 325.63 200.59 318.56 203.66 311.56 207.7 304.7 212.38 297.99 217.77 291.49 223.7 285.27 229.82 279.28 236.14 273.64 242.51 268.44 248.63 263.53 254.57 259.12 260.23 255.26 267.82 250.25 280.64 243.52 286.12 241.7 295.64 239.85 310.6 237.21 316.45 235.23 322.67 231.83 336.93 221.84 344.92 215.49 350.37 210.74 356.12 205.98 362.13 201.4 368.15 196.91 374.43 192.98 380.95 189.8" stroke-dasharray="9 9" transform="rotate(32.32, 400, 400)" opacity="0.39"></path><path d="M388.24 200.51C394.51 198.03 400.98 196.58 407.64 196.18 414.31 196.57 421.21 198.02 428.32 200.48 435.48 203.62 442.9 207.6 450.55 212.29 458.27 217.34 466.24 222.84 474.43 228.64 482.65 234.44 491.04 240.31 499.51 246.14 507.9 251.67 516.22 257.01 524.33 262.11 532.12 266.77 539.46 271.15 546.17 275.28 560.18 285.36 566.14 298.36 562.87 302.61 558.18 306.87 547.92 316.59 544.48 322.18 544.36 328.1 554.44 341.61 564.61 349.17 573.07 354.32 582.14 359.77 591.26 365.5 600.04 371.24 607.7 377.26 613.63 383.56 617.64 389.85 619.1 396.28 617.98 402.84 614.68 409.41 609.14 416.12 601.8 422.97 593.3 429.86 583.95 436.92 574.31 444.14 564.96 451.42 556.22 458.89 548.44 466.53 541.99 474.24 536.87 482.12 533.11 490.12 530.87 498.16 529.79 506.27 529.65 514.39 530.55 522.43 531.9 530.35 533.39 538.06 535.22 545.49 536.71 552.53 537.66 559.04 536.44 573.69 523.93 583.36 516.39 581.93 510.76 580.05 504.63 577.33 498.13 573.92 491.41 570.42 484.46 566.64 477.38 562.81 470.21 559.55 462.99 556.72 455.82 554.53 448.63 553.51 441.51 553.47 434.53 554.5 427.55 556.9 420.72 560.37 414.04 564.78 407.37 570.21 401.01 576.02 394.95 581.9 388.86 587.94 383.04 593.46 377.45 598.17 369.08 603.69 352.98 606.57 345.05 603.64 339.59 600.13 334.1 595.37 328.55 589.54 322.75 582.96 316.82 575.61 310.75 567.72 304.41 559.51 297.91 551.08 291.27 542.57 284.43 534.16 277.52 525.9 270.6 517.88 263.67 510.19 256.89 502.84 250.39 495.84 244.15 489.24 238.4 482.97 233.26 477.01 226.76 468.71 218.94 453.37 217.75 446.01 218.08 438.86 221.75 424.1 224.07 416.3 225.52 408.3 225.23 391.06 223.18 381.77 220.92 375.49 218.45 369.11 215.98 362.65 213.35 356.2 211.14 349.71 209.53 343.21 208.36 336.76 208.09 330.33 208.79 324 210.23 317.74 212.69 311.63 216.09 305.71 220.15 299.93 224.98 294.41 230.42 289.2 236.17 284.2 242.25 279.57 248.52 275.37 254.7 271.41 260.84 267.92 266.83 264.94 275.15 261.06 289.82 255.98 296.22 254.59 307.11 252.66 322.75 248.74 328.36 246.16 334.14 242.26 347.17 231.71 354.49 225.32 359.46 220.66 364.77 216.04 370.39 211.64 376.01 207.34 381.96 203.57 388.23 200.52" stroke-dasharray="11 7" transform="rotate(36.36, 400, 400)" opacity="0.40"></path><path d="M397.94 211.23C403.98 208.82 410.25 207.35 416.73 206.85 423.22 207.05 429.94 208.23 436.86 210.35 450.79 216.42 465.52 225.35 480.7 236.1 495.64 247.18 510.36 258.51 523.88 269.41 535.75 278.92 544.91 287.57 550.26 295.45 552.68 301.91 551.03 308.14 545.94 314.51 540.6 320.19 535.34 326.6 532.58 333.95 535.36 341.14 543.5 349.51 556.65 359.09 564.77 363.87 573.27 368.95 581.69 374.34 589.73 379.72 596.71 385.41 602.14 391.4 605.91 397.4 607.44 403.57 606.7 409.9 604.04 416.24 599.37 422.75 593.01 429.42 577.22 442.83 559.36 456.94 542.75 471.54 529.96 486.19 521.61 501.12 517.39 515.79 517.38 529.81 518.97 542.69 520.4 553.5 521.57 565.15 508.34 567.54 494.43 559.34 483.56 553.25 471.49 547.34 458.86 543.18 452.47 542.63 446.04 542.94 439.6 544.18 433.16 546.61 426.74 549.94 420.37 554.07 414 559.09 407.82 564.43 401.83 569.84 395.82 575.44 389.97 580.61 384.26 585.12 372.68 592.53 361.37 595.34 350.12 593.2 338.26 587.27 326.05 577.07 313.4 563.85 300.13 549.01 286.61 533.17 273.35 517.4 260.6 502.27 249.27 488.06 240.27 474.96 233.42 462.97 229.72 451.75 229.25 441.01 230.25 430.87 232.93 420.64 236.15 410.08 237.37 402.15 236.74 385.56 234.67 376.85 232.45 370.98 230.05 365.09 227.62 359.21 225.01 353.33 222.75 347.49 221 341.7 218.7 330.24 219.92 319.25 224.76 309.11 232.15 299.46 242.28 291.03 254.05 284.18 266.08 278.01 278.1 273.52 289.52 270.71 299.55 268.09 308.75 266.52 317.37 265.53 324.79 263.31 332.29 260.53 340.25 256.72 347.72 250.61 356.15 243.24 365.7 235.05 370.43 230.52 375.47 226.07 380.84 221.84 386.19 217.75 391.89 214.16 397.93 211.23" stroke-dasharray="2 10" transform="rotate(40.400000000000006, 400, 400)" opacity="0.38"></path><path d="M408.07 221.94C419.67 217.85 432.06 217.32 445.03 220.28 457.99 225.55 471.36 233.57 484.66 243.48 497.46 253.98 509.42 265.03 519.69 275.97 528.3 285.93 534.12 295.26 536.51 303.91 536.83 311.3 534.11 318.35 529.25 325.33 525.17 331.55 522.03 338.21 521.69 345.56 526.38 352.62 535.6 360.66 548.72 369.77 564.48 378.8 579.58 388.99 590.66 400.39 596.07 411.79 593.5 423.91 583.97 436.59 570.1 449.31 553.68 462.57 537.51 476.1 523.92 489.48 513.71 502.8 507.08 515.48 504.36 527.34 503.73 537.76 503.81 545.99 504.76 554.17 496.48 552.77 486.2 544.91 477.89 539.74 468.07 535.02 457.22 532.01 446.16 532.74 434.49 536.57 422.49 543.35 410.49 553.22 398.72 563.33 387.19 572.05 375.5 579.39 363.77 582.89 351.9 582.14 339.64 578.13 327.03 570.14 314.19 559.12 301.16 546.28 288.26 531.99 276.07 517.24 264.79 502.58 255.22 488.38 248.09 474.97 242.98 462.34 240.7 450.42 241.18 439.1 242.63 428.31 245.32 417.7 248.23 407.11 249.12 396.67 248.5 385.96 246.15 375 241.34 364.04 236.43 353.33 232.63 343.09 229.86 332.96 230.17 323.52 233.79 315.06 239.79 306.96 248.6 300.09 259.33 294.67 270.79 289.65 282.74 286.03 294.51 283.72 305.39 281.25 315.63 279.45 325.27 277.88 333.84 274.98 342.24 271.42 350.77 266.89 358.74 260.34 367.33 252.79 376.78 244.69 386.06 235.84 396.45 227.9 408.06 221.94" stroke-dasharray="8 7" transform="rotate(44.44, 400, 400)" opacity="0.94"></path><path d="M416.53 232.65C427.58 228.68 439.07 227.91 450.77 230.29 462.37 234.77 473.92 241.86 484.91 250.86 495.28 260.61 504.4 271.17 511.58 281.9 517.34 292.02 520.53 301.76 520.9 310.98 520.06 319.16 517.21 326.98 513.3 334.61 510.87 341.5 509.92 348.6 511.78 356.14 518.03 363.35 527.97 371.3 540.81 380.11 555.46 388.82 569.16 398.54 579.18 409.32 584.33 420.11 582.58 431.49 574.65 443.27 562.69 455.05 547.89 467.14 532.57 479.22 518.76 491.04 507.31 502.46 498.73 512.97 490.14 534.22 481.94 537.87 474.2 530.74 467.93 526.55 460.04 522.98 450.85 521.02 441.47 522.35 431.11 526.28 419.97 532.64 408.83 541.66 397.49 550.87 386.04 558.97 374.52 566.13 362.74 570.11 350.74 570.48 338.59 568.16 326.2 562.22 313.82 553.36 301.65 542.65 289.95 530.2 279.3 516.89 269.8 503.26 262.14 489.64 256.87 476.47 253.35 463.73 252.29 451.55 253.49 439.99 255.21 428.82 257.77 418.01 260.3 407.48 260.86 397.08 260.01 386.73 257.64 376.48 253.01 366.22 248.26 356.51 244.4 347.5 241.27 338.56 240.78 330.46 243.23 323.39 247.84 316.55 255.2 310.87 264.63 306.46 275.11 302.2 286.51 299.05 298.14 296.85 309.38 294.23 320.27 291.97 330.68 289.71 340.26 286.09 349.56 281.81 358.77 276.65 367.44 269.79 376.44 262.17 385.97 254.24 395.32 245.79 405.47 238.29 416.53 232.65" stroke-dasharray="3 5" transform="rotate(48.48, 400, 400)" opacity="0.59"></path><path d="M421.57 243.37C431.95 239.53 442.35 238.55 452.53 240.4 462.58 244.11 472.12 250.26 480.73 258.28 488.74 267.16 495.29 277.02 499.91 287.3 503.5 297.29 504.94 307.15 504.26 316.67 503.17 325.43 500.95 333.86 498.5 342.04 497.92 349.58 499.06 357.18 502.82 364.99 510.25 372.48 520.55 380.47 532.88 389.08 546.36 397.59 558.7 406.89 567.69 417.02 572.57 427.14 571.52 437.65 565.07 448.34 554.95 458.98 541.88 469.67 527.74 480.08 514.24 490.17 502.18 499.61 492.24 507.94 477.77 523.35 466.24 523.01 459.86 516.9 454.89 513.71 448.43 511.23 440.61 510.21 432.65 512.03 423.51 515.99 413.32 521.92 403.13 530.12 392.46 538.47 381.45 545.91 370.45 552.76 359.1 557.02 347.55 558.28 336.06 557.37 324.51 553.27 313.22 546.45 302.42 537.89 292.36 527.45 283.58 515.86 275.99 503.68 270.24 491.14 266.71 478.71 264.57 466.41 264.47 454.48 266.14 443.06 267.94 431.9 270.24 421.14 272.35 410.82 272.56 400.61 271.51 390.67 269.12 381.08 264.7 371.49 260.15 362.66 256.31 354.67 252.92 346.72 251.77 339.69 253.15 333.68 256.4 327.76 262.25 322.89 270.2 319.07 279.39 315.19 289.8 312.14 300.8 309.74 311.85 306.75 322.86 303.9 333.6 300.88 343.84 296.58 353.79 291.65 363.52 286 372.84 278.95 382.24 271.38 391.84 263.7 401.29 255.71 411.19 248.67 421.57 243.37" stroke-dasharray="4 6" transform="rotate(52.52, 400, 400)" opacity="0.28"></path><path d="M422.17 254.08C431.76 250.4 440.96 249.25 449.58 250.6 458.05 253.58 465.69 258.8 472.18 265.8 478.2 273.72 482.73 282.72 485.56 292.32 487.79 301.9 488.39 311.58 487.57 321.1 486.95 330.11 485.9 338.9 485.19 347.45 486.47 355.49 489.47 363.49 494.75 371.54 502.94 379.31 513.27 387.37 524.91 395.8 537.17 404.15 548.18 413.03 556.21 422.45 560.79 431.87 560.34 441.4 555.21 450.87 546.84 460.28 535.56 469.46 522.85 478.14 510.12 486.49 498.04 494.01 487.36 500.35 475.15 508.06 460.48 513.9 455.49 511.93 451.07 508.36 437.76 500.51 428.12 499.57 421.21 501.77 413.12 505.71 403.92 511.21 394.72 518.61 384.92 526.11 374.73 532.88 364.6 539.33 354.14 543.69 343.6 545.6 333.27 545.81 323.07 543.3 313.37 538.34 304.28 531.81 296.12 523.42 289.33 513.72 283.63 503.28 279.65 492.2 277.6 480.93 276.56 469.57 277.14 458.33 279.04 447.47 280.75 436.71 282.71 426.33 284.35 416.42 284.23 406.59 282.99 397.15 280.6 388.2 276.42 379.25 272.11 371.17 268.36 364 263.98 353.69 267.77 337.71 276.33 331.9 284 328.09 293.06 324.86 302.99 322.03 313.3 318.54 323.88 315.03 334.42 311.28 344.78 306.38 354.95 300.94 364.87 294.94 374.54 287.84 384.11 280.42 393.62 273.09 403.04 265.59 412.57 259.04 422.17 254.08" stroke-dasharray="5 4" transform="rotate(56.56, 400, 400)" opacity="0.88"></path><path d="M418.18 264.8C426.9 261.29 434.91 260 442.09 260.9 449.16 263.2 455.21 267.52 460.07 273.5 464.64 280.38 467.88 288.4 469.74 297.12 471.42 306.04 471.97 315.23 471.73 324.44 472.09 333.39 472.51 342.22 473.6 350.87 476.56 359.16 481.09 367.37 487.45 375.52 496.03 383.44 506.09 391.49 516.87 399.69 527.89 407.81 537.62 416.22 544.73 424.89 548.99 433.55 549.02 442.07 545.09 450.29 538.34 458.43 528.84 466.13 517.72 473.15 506.14 479.89 494.57 485.71 483.77 490.35 474.24 494.48 465.98 497.24 458.94 498.51 450.84 498.99 438.01 494.04 431.37 490.46 426.94 489.19 421.66 488.62 415.43 489.09 409.19 491.59 401.94 495.44 393.72 500.5 385.49 507.13 376.73 513.81 367.65 519.89 358.65 525.85 349.47 530.15 340.35 532.48 331.52 533.55 323.01 532.34 315.17 528.99 307.94 524.33 301.73 517.89 296.85 510.11 292.86 501.55 290.38 492.17 289.5 482.37 289.25 472.31 290.22 462.17 292.11 452.2 293.59 442.24 295.13 432.54 296.28 423.27 295.84 414.03 294.44 405.2 292.09 396.88 288.17 388.57 284.13 381.13 280.53 374.58 275.93 365.12 276.96 350.17 283.26 344.35 289.29 340.37 296.79 336.78 305.3 333.41 314.41 329.37 324.04 325.22 333.86 320.82 343.75 315.46 353.6 309.66 363.25 303.48 372.82 296.47 382.21 289.32 391.37 282.4 400.5 275.44 409.47 269.39 418.18 264.8" stroke-dasharray="2 7" transform="rotate(60.599999999999994, 400, 400)" opacity="0.46"></path><path d="M410.45 275.51C418.23 272.21 425.16 270.82 431.17 271.31 437.1 273 442.02 276.46 445.85 281.43 449.57 287.24 452.22 294.18 453.88 301.9 455.65 309.93 456.77 318.38 457.57 326.99 459.16 335.53 461.1 344.08 463.82 352.51 468.16 360.74 473.8 368.88 480.81 376.91 489.42 384.79 498.95 392.66 508.75 400.5 518.51 408.3 527.01 416.16 533.25 424.03 537.17 431.9 537.59 439.39 534.69 446.4 529.42 453.34 521.65 459.68 512.2 465.25 502.02 470.61 491.42 475.03 481.05 478.36 471.38 481.36 462.5 483.19 454.53 483.82 444.51 483.91 428.26 480.22 420.69 477.97 415.85 477.56 410.53 477.75 404.61 478.78 398.72 481.46 392.12 485.18 384.8 489.78 377.49 495.68 369.83 501.56 362.04 506.95 354.33 512.36 346.63 516.47 339.16 519.02 331.98 520.68 325.27 520.47 319.32 518.46 313.89 515.41 309.46 510.74 306.25 504.79 303.66 498.11 302.33 490.51 302.26 482.33 302.47 473.83 303.56 465.05 305.26 456.26 306.39 447.39 307.45 438.65 308.13 430.2 307.39 421.76 305.86 413.65 303.57 405.98 299.93 398.32 296.2 391.45 292.81 385.34 288.16 376.48 286.96 361.91 291.19 355.81 295.6 351.55 301.43 347.51 308.34 343.58 315.91 339.04 324.18 334.37 332.82 329.47 341.72 323.81 350.73 317.84 359.65 311.64 368.62 304.86 377.42 298.09 385.92 291.64 394.44 285.26 402.66 279.74 410.45 275.51" stroke-dasharray="1 10" transform="rotate(64.64, 400, 400)" opacity="0.55"></path><path d="M400.55 286.22C410.4 282.42 425.79 284.31 431.28 289.64 434.67 294.4 437.31 300.22 439.33 306.83 441.64 313.81 443.67 321.31 445.68 329.07 448.5 336.9 451.81 344.85 455.84 352.75 461.15 360.59 467.46 368.37 474.7 376.01 482.99 383.58 491.77 391.06 500.5 398.39 509.02 405.71 516.36 412.93 521.77 419.97 525.34 427 526.05 433.52 524.03 439.43 520.08 445.29 513.93 450.47 506.17 454.87 497.56 459.12 488.25 462.5 478.78 464.93 469.55 467.18 460.69 468.48 452.41 468.86 444.81 469.21 437.78 468.84 431.27 467.9 422.46 467 405.87 466.75 397.34 468.62 391.62 471.39 385.52 474.92 379.03 479.07 372.54 484.25 365.98 489.37 359.49 494.07 353.08 498.89 346.87 502.69 341.05 505.28 332.95 507.53 320.84 503.51 317.44 497.62 315.89 492.69 315.32 486.82 315.68 480.3 316.06 473.44 317.04 466.16 318.38 458.7 319.09 451.13 319.66 443.52 319.88 436.05 318.88 428.56 317.26 421.27 315.05 414.29 311.72 407.31 308.33 400.95 305.2 395.21 300.67 386.8 297.82 372.27 300.26 365.77 303.18 361.22 307.39 356.77 312.64 352.36 318.53 347.46 325.2 342.42 332.37 337.22 339.87 331.45 347.63 325.49 355.43 319.45 363.36 313.03 371.2 306.74 378.78 300.83 386.4 295.05 393.71 290.07 400.55 286.22" stroke-dasharray="2 1" transform="rotate(68.68, 400, 400)" opacity="0.37"></path><path d="M390.54 296.94C402.42 292 411.57 292.67 418.17 298.19 425.15 306.28 430.8 317.81 436.43 331.06 444.85 344.92 455.65 359.38 468.95 373.38 484.72 387.33 499.9 400.85 510.28 413.25 515.07 425.64 510.73 435.6 499.5 442.72 484.92 449.55 468.13 453.31 451.92 454.13 437.09 455.37 423.68 455.11 411.6 454.62 400.37 457.33 389.08 461.92 377.58 468.36 366.08 477.98 355.42 486.21 346.52 491.35 338.19 495.13 332.5 494.04 330.13 488.61 328.34 481.29 329.09 470.83 331.35 458.8 331.11 446.27 329.67 433.22 326.54 420.69 319.76 408.16 313.92 397.27 310.71 387.89 308.88 377.98 311.75 368.69 318.65 359.65 327.65 349.12 339.38 338.05 352.09 326.95 365.42 314.98 378.66 304.31 390.54 296.94" stroke-dasharray="1 9" transform="rotate(72.72, 400, 400)" opacity="0.86"></path><path d="M382.48 307.65C392.67 303.08 401.12 303.09 408.02 307.13 415.43 313.23 422.43 322.42 429.87 333.36 439.43 345.04 450.75 357.54 463.41 369.79 477.32 382.14 490.13 394.06 498.8 404.77 503.25 415.47 500.52 423.84 492.1 429.71 480.7 435.49 466.65 438.86 452.26 440.08 438.27 441.97 425.06 442.93 413.12 443.81 401.74 447.21 390.9 451.88 380.76 457.64 370.61 465.81 362.02 472.76 355.43 477.31 347.15 481.23 342.65 469.32 344.07 456.08 343.04 446.21 341.09 435.36 338.02 424.34 332.05 413.32 326.88 403.16 323.7 393.89 321.15 384.22 322.22 374.76 326.63 365.44 332.57 355.11 341.12 344.49 351.01 334.19 361.45 323.49 372.3 314.13 382.48 307.65" stroke-dasharray="9 9" transform="rotate(76.76, 400, 400)" opacity="0.25"></path><path d="M378.04 318.36C386.67 314.23 394.57 313.75 401.8 316.49 409.5 320.8 417.38 327.75 425.81 336.34 435.61 345.66 446.55 355.89 457.93 366.11 469.74 376.5 480.25 386.6 487.31 395.65 491.34 404.7 489.88 411.78 483.92 416.84 475.53 421.95 464.49 425.28 452.57 427.12 440.43 429.68 428.47 431.66 417.47 433.57 406.75 437.35 396.76 441.88 387.91 446.93 379.06 453.72 372.06 459.41 367.04 463.25 360.57 467.24 356.39 460.19 356.43 450.41 354.73 442.95 352.44 434.21 349.51 424.76 344.36 415.3 339.95 406.05 337.03 397.19 334.24 388.06 334.13 378.89 336.65 369.82 340.12 360.16 345.9 350.41 353.18 341.21 360.88 331.94 369.4 323.93 378.04 318.36" stroke-dasharray="3 6" transform="rotate(80.80000000000001, 400, 400)" opacity="0.21"></path><path d="M378.13 329.08C385.32 325.45 392.58 324.63 399.79 326.31 407.32 329.09 415.33 334.01 423.77 340.36 432.95 347.31 442.72 355.19 452.35 363.27 461.94 371.51 470.24 379.67 475.83 387.11 479.35 394.56 478.83 400.55 474.91 405.07 469.21 409.69 461.16 413.13 452 415.57 442.36 418.62 432.45 421.32 423.09 423.88 413.78 427.73 405.1 431.93 397.55 436.21 380.85 448.38 369.6 448.97 368.32 441.97 366.16 436.53 363.69 429.72 360.99 421.88 356.7 414.04 353.09 405.93 350.63 397.87 347.99 389.67 347.28 381.28 348.56 372.99 350.29 364.43 353.93 355.93 359.07 348.09 364.44 340.34 370.93 333.72 378.13 329.08" stroke-dasharray="6 8" transform="rotate(84.84, 400, 400)" opacity="0.35"></path><path d="M382.73 339.79C394.38 334.48 408.41 337.4 423.1 345.69 438.92 355.65 454.86 368.49 464.35 380.29 468.72 392.08 462.16 400.43 449.84 405.65 435.65 412.62 420.07 419.44 407.7 425.5 395.32 434.56 388.04 439.2 385.02 438.09 380.06 436.35 376.02 428.54 372.47 416.09 364.79 403.65 360.79 389.16 361.98 375.24 363.65 361.03 371.08 347.73 382.73 339.79" stroke-dasharray="8 6" transform="rotate(88.88, 400, 400)" opacity="0.89"></path><path d="M390.9 350.5C399.81 346.14 411.28 347.39 423 352.54 434.91 358.64 446.28 367.3 452.86 376.08 456.62 384.87 453.23 392.09 445.56 397.46 436.58 403.86 425.72 409.97 416.26 414.79 403.55 422.85 389.32 420.05 383.96 408.17 378.33 398.94 375.56 387.7 376.37 376.92 377.03 366.22 381.98 356.38 390.9 350.5" stroke-dasharray="10 11" transform="rotate(92.92, 400, 400)" opacity="0.22"></path><path d="M400.94 361.22C413.12 355.72 432.34 363.35 441.38 375.06 445.54 386.75 434.23 398.2 421.46 404.07 408.68 412.86 399.19 411.29 395.44 399.15 387.31 387.01 388.75 369.44 400.94 361.22" stroke-dasharray="10 6" transform="rotate(96.96, 400, 400)" opacity="0.53"></path></g></svg>